<svg width="68" height="68" viewBox="0 0 68 68" fill="none" xmlns="http://www.w3.org/2000/svg">
  <path d="M29.2585 30.8974C29.3986 30.8146 29.4688 30.6712 29.4688 30.4673C29.4688 30.2559 29.4032 30.1075 29.272 30.022C29.1407 29.9367 28.8852 29.894 28.5055 29.894H28.1768V31.0216H28.4826C28.8596 31.0216 29.1184 30.9803 29.2585 30.8974Z" fill="white"/>
  <path d="M34.4263 30.173C34.3957 30.0482 34.3562 29.8876 34.3078 29.6914C34.2747 29.829 34.2422 29.9603 34.2104 30.0851C34.1785 30.21 34.146 30.3297 34.1129 30.4444L33.551 32.2906H35.0685L34.4989 30.4444C34.4811 30.3884 34.4569 30.2979 34.4263 30.173Z" fill="white"/>
  <path d="M28.8931 36.183C28.8702 36.0894 28.8406 35.969 28.8043 35.8218C28.7794 35.925 28.755 36.0233 28.7312 36.117C28.7073 36.2106 28.6829 36.3005 28.6581 36.3865L28.2366 37.7712H29.3747L28.9476 36.3865C28.9343 36.3445 28.9161 36.2766 28.8931 36.183Z" fill="white"/>
  <path d="M50.4818 22.8145H18.7184C17.5485 22.8145 16.6001 23.7629 16.6001 24.9328V43.067C16.6001 44.2369 17.5485 45.1853 18.7184 45.1853H50.4818C51.6517 45.1853 52.6001 44.2369 52.6001 43.067V24.9328C52.6001 23.7629 51.6517 22.8145 50.4818 22.8145ZM19.3414 28.7711H25.5389V29.8801H19.3414V28.7711ZM19.3414 30.9239H25.5389V32.0329H19.3414V30.9239ZM19.3414 33.2724H25.5389V34.3814H19.3414V33.2724ZM22.8038 36.1343H21.8635V39.3394H20.7196V36.1343H19.7794V35.1424H22.8038V36.1343ZM29.8276 39.3394L29.6154 38.5882H27.9899L27.772 39.3394H25.3982L24.4351 37.6967V39.3394H23.3628V35.1424H24.5583C25.0265 35.1424 25.3529 35.1639 25.5373 35.2069C25.7217 35.2499 25.8809 35.322 26.0147 35.4233C26.1657 35.538 26.2817 35.6842 26.363 35.8619C26.4442 36.0396 26.4849 36.2356 26.4849 36.4495C26.4849 36.7745 26.4051 37.0388 26.2455 37.2422C26.0858 37.4458 25.8532 37.581 25.5474 37.648L26.6533 39.2832L28.0816 35.1423H29.5151L30.9657 39.3393L29.8276 39.3394ZM30.9652 33.5711C30.8391 33.7979 30.6588 33.9737 30.4244 34.0986C30.2333 34.2005 29.9976 34.2731 29.7172 34.3165C29.4369 34.3598 28.9782 34.3815 28.3412 34.3815H26.7625V28.7854H28.2953C28.9272 28.7854 29.3688 28.8059 29.6197 28.8466C29.8707 28.8874 30.0867 28.9574 30.2677 29.0569C30.474 29.1715 30.6313 29.3251 30.7397 29.5175C30.848 29.7099 30.9022 29.9322 30.9022 30.1845C30.9022 30.5031 30.8212 30.7559 30.6595 30.9433C30.4976 31.1306 30.2395 31.2726 29.8854 31.3694C30.2829 31.4 30.5938 31.5395 30.8181 31.788C31.0422 32.0365 31.1545 32.3684 31.1545 32.7837C31.1544 33.0818 31.0914 33.3443 30.9652 33.5711ZM35.4695 39.3394H34.3714L32.7861 37.1721C32.7536 37.1281 32.7024 37.0398 32.6328 36.9069C32.5629 36.774 32.487 36.6179 32.4048 36.4381C32.4277 36.614 32.4444 36.7697 32.455 36.9054C32.4654 37.0412 32.4708 37.1616 32.4708 37.2667V39.3395H31.367V35.1424H32.4708L34.0561 37.3011C34.0867 37.3452 34.1368 37.4334 34.2066 37.5663C34.2764 37.6992 34.3534 37.8573 34.4375 38.0407C34.4145 37.8669 34.3978 37.7121 34.3873 37.5764C34.3767 37.4406 34.3715 37.3202 34.3715 37.2151V35.1424H35.4695V39.3394ZM35.3897 33.3799H33.2224L32.9318 34.3814H31.4143L33.3446 28.7854H35.2559L37.19 34.3814H35.6725L35.3897 33.3799ZM38.7004 39.0455C38.408 39.316 38.018 39.4512 37.5307 39.4512C37.2382 39.4512 36.9721 39.4014 36.7322 39.3021C36.4924 39.2028 36.2617 39.047 36.0399 38.8348L36.556 37.9834C36.7261 38.1765 36.8938 38.3208 37.0591 38.4163C37.2244 38.5119 37.3892 38.5597 37.5536 38.5597C37.7065 38.5597 37.8321 38.5185 37.9306 38.4364C38.0289 38.3543 38.0782 38.2501 38.0782 38.1239C38.0782 37.9844 38.0357 37.8769 37.9507 37.8014C37.8656 37.7259 37.6731 37.648 37.373 37.5677C36.9621 37.4569 36.6716 37.3126 36.5015 37.1349C36.3315 36.9572 36.2464 36.7135 36.2464 36.4039C36.2464 36.0025 36.3806 35.6753 36.6492 35.422C36.9176 35.1687 37.2659 35.0422 37.6941 35.0422C37.9254 35.0422 38.1446 35.0732 38.352 35.1353C38.5592 35.1974 38.7557 35.2915 38.9411 35.4177L38.5827 36.2405C38.4527 36.1297 38.3194 36.046 38.1828 35.9897C38.0461 35.9333 37.9109 35.9051 37.7771 35.9051C37.6395 35.9051 37.5276 35.9381 37.4417 36.0039C37.3557 36.07 37.3127 36.1545 37.3127 36.2577C37.3127 36.3628 37.3504 36.4469 37.4259 36.5099C37.5014 36.5731 37.6471 36.6332 37.8631 36.6905L37.9147 36.7048C38.381 36.831 38.6878 36.9696 38.8349 37.1205C38.9343 37.2238 39.0098 37.3474 39.0614 37.4918C39.113 37.6362 39.1389 37.7961 39.1389 37.972C39.139 38.4173 38.9927 38.775 38.7004 39.0455ZM39.4128 31.1381C39.3198 30.961 39.2184 30.7527 39.1089 30.5131C39.1395 30.7476 39.1618 30.9553 39.1758 31.1362C39.1897 31.3171 39.1969 31.4777 39.1969 31.6179V34.3815H37.7252V28.7854H39.1969L41.3107 31.6637C41.3513 31.7224 41.4182 31.8402 41.5113 32.0173C41.6043 32.1944 41.7068 32.4053 41.8191 32.6499C41.7885 32.418 41.7661 32.2117 41.7522 32.0307C41.7382 31.8498 41.7311 31.6893 41.7311 31.5491V28.7854H43.1951V34.3815H41.7311L39.6173 31.4917C39.5739 31.4331 39.5058 31.3152 39.4128 31.1381ZM42.3526 36.0626H40.8963V36.7907H42.2695V37.6909H40.8963V39.3393H39.7811V35.1423H42.3526V36.0626ZM45.5463 36.0626H44.0899V36.7907H45.4632V37.6909H44.0899V38.3989H45.5463V39.3393H42.9748V35.1423H45.5463V36.0626ZM48.3386 39.3394L47.3753 37.6967V39.3394H46.3031V35.1424H47.4986C47.9669 35.1424 48.2932 35.1639 48.4776 35.2069C48.6621 35.2499 48.8212 35.322 48.9549 35.4233C49.1059 35.538 49.222 35.6842 49.3033 35.8619C49.3844 36.0396 49.4251 36.2356 49.4251 36.4495C49.4251 36.7745 49.3452 37.0388 49.1858 37.2422C49.0261 37.4458 48.7935 37.581 48.4877 37.648L49.6315 39.3394H48.3386ZM47.7284 34.3814L45.9051 31.8701V34.3814H44.3953V28.7854H45.9052V31.3272L47.675 28.7854H49.4524L47.3844 31.5146L49.632 34.3814H47.7284Z" fill="white"/>
  <path d="M48.1393 36.1559C48.0332 36.0669 47.8551 36.0225 47.6047 36.0225H47.3752V37.1263H47.5874C47.834 37.1263 48.0141 37.0841 48.1278 37C48.2415 36.916 48.2985 36.7842 48.2985 36.6045C48.2985 36.3942 48.2454 36.2447 48.1393 36.1559Z" fill="white"/>
  <path d="M29.4991 32.1585C29.3615 32.0656 29.1067 32.019 28.7346 32.019H28.1765V33.2384H28.7116C29.0735 33.2384 29.3296 33.1932 29.48 33.1027C29.6304 33.0122 29.7055 32.8612 29.7055 32.6498C29.7055 32.4153 29.6368 32.2516 29.4991 32.1585Z" fill="white"/>
  <path d="M25.1992 36.1559C25.0932 36.0669 24.915 36.0225 24.6646 36.0225H24.4353V37.1263H24.6474C24.8939 37.1263 25.074 37.0841 25.1878 37C25.3015 36.916 25.3584 36.7842 25.3584 36.6045C25.3584 36.3942 25.3053 36.2447 25.1992 36.1559Z" fill="white"/>
</svg>
