<?xml version="1.0" standalone="no"?>
<!DOCTYPE svg PUBLIC "-//W3C//DTD SVG 20010904//EN"
 "http://www.w3.org/TR/2001/REC-SVG-20010904/DTD/svg10.dtd">
<svg version="1.0" xmlns="http://www.w3.org/2000/svg"
 width="534.000000pt" height="510.000000pt" viewBox="0 0 534.000000 510.000000"
 preserveAspectRatio="xMidYMid meet">
<metadata>
Created by potrace 1.16, written by Peter Selinger 2001-2019
</metadata>
<g transform="translate(0.000000,510.000000) scale(0.100000,-0.100000)"
fill="white" stroke="none">
<path d="M2684 5064 c-21 -15 -61 -45 -89 -68 -58 -49 -736 -625 -749 -637 -5
-5 0 -38 12 -81 55 -186 2 -542 -199 -1338 -55 -216 -98 -401 -97 -409 2 -10
35 24 82 84 91 115 263 288 357 359 147 111 261 150 439 150 120 1 128 -1 192
-31 174 -82 258 -247 258 -508 0 -270 -86 -566 -271 -936 -87 -175 -154 -292
-241 -422 -33 -49 -57 -91 -54 -94 8 -9 163 120 346 288 178 163 395 418 540
634 94 139 115 187 130 285 11 74 56 267 171 745 18 74 32 162 36 230 3 61 11
116 17 124 15 19 111 9 163 -18 72 -36 103 -101 103 -216 0 -99 -12 -154 -92
-435 -105 -369 -137 -525 -123 -591 17 -76 101 -11 244 189 97 136 238 364
277 447 65 137 114 343 114 475 0 84 2 91 24 106 34 21 123 22 163 1 53 -28
68 -68 67 -177 -1 -109 -18 -187 -106 -505 -75 -273 -98 -381 -98 -468 0 -107
20 -127 86 -86 66 40 245 313 419 639 83 155 94 168 131 151 31 -14 35 -10 66
66 l17 41 -1140 1016 c-628 559 -1144 1016 -1149 1016 -4 0 -25 -12 -46 -26z"/>
<path d="M1255 3852 c-333 -281 -912 -776 -919 -787 -12 -16 14 -86 126 -338
168 -381 387 -839 407 -851 15 -10 19 2 56 180 37 181 175 780 329 1432 53
222 96 410 96 418 0 23 -11 17 -95 -54z"/>
<path d="M2052 2780 c-118 -54 -256 -202 -431 -465 -194 -292 -231 -386 -322
-820 -43 -208 -47 -270 -19 -325 45 -88 160 -251 173 -244 263 154 551 587
756 1137 83 221 115 359 115 502 1 106 -2 125 -22 162 -12 24 -35 49 -52 58
-42 22 -145 19 -198 -5z"/>
<path d="M4874 2759 c-6 -8 -42 -72 -79 -144 -170 -325 -335 -544 -457 -606
-82 -42 -185 -33 -252 23 -60 49 -69 76 -75 232 l-6 138 -50 -73 c-114 -169
-241 -298 -326 -333 -86 -35 -180 -31 -228 10 l-29 24 -112 -154 c-165 -228
-261 -340 -469 -546 -261 -259 -447 -401 -691 -525 -128 -65 -310 -143 -387
-166 -24 -7 -43 -16 -43 -20 0 -14 220 -237 318 -322 163 -140 310 -227 459
-269 112 -31 288 -31 393 1 247 76 526 289 809 621 143 167 423 573 608 883
164 276 640 1200 631 1227 -3 9 -6 9 -14 -1z"/>
</g>
</svg>
