<svg xmlns:xlink="http://www.w3.org/1999/xlink" xmlns="http://www.w3.org/2000/svg" class="svg-icon svelte-10mcogx" width="32"  height="32" ><defs><symbol id="icon-group-providers" viewBox="0 0 32 32">
<path d="M14.667 26.387l-13.973-6.32v4.2c0 0.001 0 0.002 0 0.004 0 0.644 0.378 1.2 0.924 1.459l0.010 0.004 13.040 5.973c0.391 0.183 0.85 0.29 1.333 0.29s0.942-0.107 1.353-0.298l-0.020 0.008 13.040-5.973c0.556-0.263 0.933-0.819 0.933-1.463 0-0.001 0-0.003 0-0.004v0-4.2l-13.973 6.32c-0.391 0.187-0.849 0.296-1.333 0.296s-0.943-0.109-1.352-0.305l0.019 0.008z"></path>
<path d="M1.2 16.747l13.333 6.133c0.423 0.196 0.918 0.311 1.44 0.311s1.017-0.114 1.462-0.32l-0.022 0.009 13.333-6.133c0.299-0.141 0.503-0.44 0.503-0.787s-0.204-0.646-0.498-0.784l-0.005-0.002-13.147-6.053v5.453c0 0.884-0.716 1.6-1.6 1.6s-1.6-0.716-1.6-1.6v0-5.453l-13.2 6.053c-0.299 0.141-0.503 0.44-0.503 0.787s0.204 0.646 0.498 0.784l0.005 0.002z"></path>
<path d="M20.053 4.013c0 2.216-1.797 4.013-4.013 4.013s-4.013-1.797-4.013-4.013c0-2.216 1.797-4.013 4.013-4.013s4.013 1.797 4.013 4.013z"></path>
</symbol></defs><use xlink:href="#icon-group-providers" stroke="#B1BAD3" fill="#B1BAD3" stroke-width="0px"></use></svg>