<svg width="68" height="68" viewBox="0 0 68 68" fill="none" xmlns="http://www.w3.org/2000/svg">
  <path d="M27.2707 21H29.4956V35.5575H27.2707V21ZM31.0531 21H32.0702V35.5575H31.0531V21ZM35.8526 21H36.8379V35.5575H35.8526V21ZM38.1093 21H40.3343V35.5575H38.1093V21ZM44.4345 21H45.4516V35.5575H44.4345V21ZM47.2633 21H48.2487V47H47.2633V21ZM20.1509 21H21.2633V47H20.1509V21ZM23.0433 21H24.124V35.5575H23.0433V21Z" fill="white"/>
  <path d="M22.6689 37.2051H24.2805C24.5995 37.2051 24.837 37.2188 24.9928 37.2463C25.1505 37.272 25.2907 37.327 25.4136 37.4113C25.5383 37.4957 25.6418 37.6084 25.7243 37.7496C25.8068 37.8889 25.8481 38.0457 25.8481 38.2199C25.8481 38.4087 25.7968 38.582 25.6941 38.7397C25.5933 38.8973 25.4557 39.0156 25.2816 39.0944C25.5272 39.1659 25.7161 39.2878 25.8481 39.4602C25.9801 39.6325 26.0461 39.8351 26.0461 40.068C26.0461 40.2513 26.003 40.4301 25.9169 40.6042C25.8325 40.7766 25.7161 40.915 25.5676 41.0195C25.4209 41.1222 25.2394 41.1854 25.0231 41.2093C24.8874 41.2239 24.5601 41.2331 24.0413 41.2368H22.6689V37.2051ZM23.483 37.8761V38.8084H24.0165C24.3337 38.8084 24.5308 38.8038 24.6078 38.7947C24.7471 38.7782 24.8562 38.7305 24.9351 38.6516C25.0157 38.571 25.0561 38.4656 25.0561 38.3354C25.0561 38.2107 25.0212 38.1099 24.9516 38.0329C24.8837 37.954 24.782 37.9064 24.6463 37.8899C24.5656 37.8807 24.3337 37.8761 23.9505 37.8761H23.483ZM23.483 39.4794V40.5575H24.2365C24.5299 40.5575 24.716 40.5492 24.7948 40.5327C24.9158 40.5107 25.0139 40.4576 25.0891 40.3732C25.1661 40.2871 25.2046 40.1725 25.2046 40.0295C25.2046 39.9085 25.1752 39.8058 25.1166 39.7214C25.0579 39.6371 24.9726 39.5757 24.8608 39.5372C24.7508 39.4987 24.5106 39.4794 24.1403 39.4794H23.483Z" fill="white"/>
  <path d="M26.5718 39.2456C26.5718 38.8349 26.6332 38.4902 26.756 38.2115C26.8477 38.0062 26.9724 37.8219 27.1301 37.6587C27.2896 37.4956 27.4637 37.3746 27.6526 37.2957C27.9038 37.1894 28.1934 37.1362 28.5216 37.1362C29.1157 37.1362 29.5905 37.3205 29.9462 37.689C30.3037 38.0575 30.4825 38.57 30.4825 39.2263C30.4825 39.8772 30.3055 40.3869 29.9517 40.7554C29.5978 41.1221 29.1248 41.3054 28.5326 41.3054C27.9331 41.3054 27.4564 41.123 27.1026 40.7581C26.7487 40.3915 26.5718 39.8873 26.5718 39.2456ZM27.4106 39.2181C27.4106 39.6746 27.516 40.0211 27.7268 40.2576C27.9377 40.4923 28.2054 40.6096 28.5299 40.6096C28.8544 40.6096 29.1202 40.4932 29.3274 40.2604C29.5364 40.0257 29.6409 39.6746 29.6409 39.2071C29.6409 38.7451 29.5392 38.4004 29.3357 38.173C29.134 37.9457 28.8654 37.832 28.5299 37.832C28.1944 37.832 27.9239 37.9475 27.7186 38.1785C27.5132 38.4077 27.4106 38.7542 27.4106 39.2181Z" fill="white"/>
  <path d="M31.1421 41.237V37.2383H31.9561V40.5577H33.9802V41.237H31.1421Z" fill="white"/>
  <path d="M34.5635 41.2368V37.2051H37.5529V37.8871H35.3775V38.7809H37.4016V39.4602H35.3775V40.5575H37.6299V41.2368H34.5635Z" fill="white"/>
  <path d="M39.2276 41.2368V37.8871H38.0312V37.2051H41.2351V37.8871H40.0415V41.2368H39.2276Z" fill="white"/>
  <path d="M41.4937 39.2456C41.4937 38.8349 41.5551 38.4902 41.678 38.2115C41.7696 38.0062 41.8943 37.8219 42.052 37.6587C42.2115 37.4956 42.3857 37.3746 42.5745 37.2957C42.8257 37.1894 43.1154 37.1362 43.4436 37.1362C44.0376 37.1362 44.5123 37.3205 44.868 37.689C45.2255 38.0575 45.4044 38.57 45.4044 39.2263C45.4044 39.8772 45.2275 40.3869 44.8736 40.7554C44.5198 41.1221 44.0467 41.3054 43.4546 41.3054C42.855 41.3054 42.3783 41.123 42.0245 40.7581C41.6706 40.3915 41.4937 39.8873 41.4937 39.2456ZM42.3325 39.2181C42.3325 39.6746 42.4379 40.0211 42.6488 40.2576C42.8596 40.4923 43.1273 40.6096 43.4518 40.6096C43.7763 40.6096 44.0422 40.4932 44.2493 40.2604C44.4584 40.0257 44.5629 39.6746 44.5629 39.2071C44.5629 38.7451 44.4611 38.4004 44.2576 38.173C44.0559 37.9457 43.7873 37.832 43.4518 37.832C43.1163 37.832 42.8458 37.9475 42.6404 38.1785C42.4351 38.4077 42.3325 38.7542 42.3325 39.2181Z" fill="white"/>
  <path d="M22.9668 42.9082H24.1889C24.4308 42.9082 24.6109 42.9186 24.7291 42.9395C24.8486 42.9589 24.955 43.0006 25.0482 43.0646C25.1427 43.1285 25.2213 43.2141 25.2838 43.3211C25.3464 43.4268 25.3777 43.5457 25.3777 43.6778C25.3777 43.821 25.3388 43.9524 25.2609 44.0719C25.1844 44.1915 25.0801 44.2812 24.9481 44.341C25.1344 44.3952 25.2776 44.4876 25.3777 44.6183C25.4778 44.749 25.5278 44.9027 25.5278 45.0793C25.5278 45.2183 25.4952 45.3539 25.4298 45.4859C25.3659 45.6166 25.2776 45.7216 25.165 45.8009C25.0537 45.8787 24.9161 45.9267 24.752 45.9448C24.6491 45.9559 24.4009 45.9628 24.0075 45.9656H22.9668V42.9082ZM23.5841 43.4171V44.1241H23.9887C24.2292 44.1241 24.3787 44.1206 24.4371 44.1136C24.5428 44.1011 24.6255 44.065 24.6853 44.0052C24.7465 43.944 24.777 43.8641 24.777 43.7653C24.777 43.6708 24.7506 43.5943 24.6978 43.5359C24.6463 43.4761 24.5692 43.44 24.4663 43.4275C24.4051 43.4205 24.2292 43.4171 23.9386 43.4171H23.5841ZM23.5841 44.6329V45.4505H24.1555C24.378 45.4505 24.5191 45.4442 24.5789 45.4317C24.6707 45.415 24.7451 45.3747 24.8021 45.3108C24.8605 45.2454 24.8897 45.1585 24.8897 45.0501C24.8897 44.9583 24.8674 44.8804 24.8229 44.8165C24.7784 44.7525 24.7138 44.7059 24.629 44.6767C24.5455 44.6475 24.3634 44.6329 24.0826 44.6329H23.5841Z" fill="white"/>
  <path d="M28.8086 45.9656H28.137L27.87 45.2711H26.6479L26.3955 45.9656H25.7407L26.9315 42.9082H27.5843L28.8086 45.9656ZM27.6719 44.756L27.2506 43.6214L26.8377 44.756H27.6719Z" fill="white"/>
  <path d="M29.144 45.9656V42.9082H29.7447L30.996 44.9499V42.9082H31.5695V45.9656H30.9501L29.7176 43.9718V45.9656H29.144Z" fill="white"/>
  <path d="M34.1809 44.8415L34.7794 45.0313C34.6877 45.365 34.5347 45.6132 34.3206 45.7758C34.1079 45.9371 33.8375 46.0178 33.5093 46.0178C33.1033 46.0178 32.7696 45.8794 32.5083 45.6027C32.2469 45.3247 32.1162 44.9451 32.1162 44.464C32.1162 43.9551 32.2476 43.5603 32.5103 43.2794C32.7731 42.9972 33.1186 42.856 33.5469 42.856C33.9209 42.856 34.2247 42.9666 34.4583 43.1876C34.5973 43.3183 34.7016 43.506 34.7711 43.7507L34.16 43.8967C34.1239 43.7382 34.0481 43.6131 33.9327 43.5213C33.8187 43.4296 33.6796 43.3837 33.5156 43.3837C33.2889 43.3837 33.1047 43.465 32.9629 43.6277C32.8225 43.7904 32.7523 44.0538 32.7523 44.4181C32.7523 44.8047 32.8218 45.0799 32.9608 45.244C33.0999 45.4081 33.2806 45.4901 33.5031 45.4901C33.6671 45.4901 33.8083 45.438 33.9264 45.3337C34.0446 45.2294 34.1294 45.0654 34.1809 44.8415Z" fill="white"/>
  <path d="M38.0684 45.9656H37.3968L37.1299 45.2711H35.9077L35.6554 45.9656H35.0005L36.1914 42.9082H36.8442L38.0684 45.9656ZM36.9317 44.756L36.5105 43.6214L36.0975 44.756H36.9317ZM36.1559 42.733L36.4437 42.1094H37.1007L36.5271 42.733H36.1559Z" fill="white"/>
  <path d="M38.3999 45.9656V42.9082H39.6992C40.0259 42.9082 40.263 42.936 40.4104 42.9916C40.5591 43.0458 40.678 43.1432 40.767 43.2836C40.856 43.424 40.9005 43.5846 40.9005 43.7653C40.9005 43.9948 40.8331 44.1845 40.6982 44.3347C40.5633 44.4835 40.3617 44.5773 40.0934 44.6163C40.2268 44.6941 40.3367 44.7796 40.4229 44.8728C40.5105 44.9659 40.628 45.1314 40.7753 45.3691L41.1487 45.9656H40.4104L39.9641 45.3003C39.8056 45.0626 39.6971 44.9131 39.6387 44.8519C39.5803 44.7894 39.5184 44.747 39.4531 44.7247C39.3878 44.7011 39.2842 44.6893 39.1423 44.6893H39.0172V45.9656H38.3999ZM39.0172 44.2012H39.474C39.7701 44.2012 39.955 44.1887 40.0287 44.1637C40.1024 44.1387 40.1601 44.0956 40.2018 44.0344C40.2435 43.9732 40.2644 43.8967 40.2644 43.805C40.2644 43.7021 40.2366 43.6194 40.181 43.5568C40.1267 43.4928 40.0496 43.4525 39.9495 43.4358C39.8994 43.4289 39.7492 43.4254 39.499 43.4254H39.0172V44.2012Z" fill="white"/>
  <path d="M41.4658 45.9656V42.9082H42.0831V45.9656H41.4658Z" fill="white"/>
  <path d="M42.5483 44.4557C42.5483 44.1442 42.5949 43.8828 42.688 43.6715C42.7575 43.5158 42.8521 43.376 42.9717 43.2523C43.0926 43.1286 43.2247 43.0368 43.3679 42.977C43.5584 42.8964 43.7781 42.856 44.027 42.856C44.4774 42.856 44.8375 42.9958 45.1073 43.2752C45.3784 43.5547 45.514 43.9433 45.514 44.4411C45.514 44.9347 45.3798 45.3212 45.1114 45.6006C44.8431 45.8787 44.4844 46.0178 44.0353 46.0178C43.5806 46.0178 43.2191 45.8794 42.9508 45.6027C42.6825 45.3247 42.5483 44.9423 42.5483 44.4557ZM43.1844 44.4348C43.1844 44.781 43.2643 45.0438 43.4242 45.2232C43.5841 45.4011 43.7871 45.4901 44.0332 45.4901C44.2793 45.4901 44.4809 45.4018 44.638 45.2252C44.7965 45.0473 44.8758 44.781 44.8758 44.4265C44.8758 44.0761 44.7986 43.8147 44.6443 43.6423C44.4913 43.4699 44.2876 43.3837 44.0332 43.3837C43.7788 43.3837 43.5737 43.4713 43.418 43.6465C43.2622 43.8203 43.1844 44.083 43.1844 44.4348Z" fill="white"/>
</svg>
