<svg width="68" height="68" viewBox="0 0 68 68" fill="none" xmlns="http://www.w3.org/2000/svg">
  <path fill-rule="evenodd" clip-rule="evenodd" d="M42.4808 25.8311L43.1243 26.4732C43.2839 26.6325 43.5428 26.6325 43.7025 26.4732L44.3459 25.8311C44.5057 25.6717 44.5057 25.4134 44.3459 25.2541L43.7028 24.6123C43.543 24.4528 43.2839 24.4528 43.1239 24.6123L42.4808 25.2541C42.3212 25.4134 42.3212 25.6717 42.4808 25.8311ZM43.4283 38.1675C43.24 38.1675 43.0872 38.0151 43.0872 37.8272V29.1922C43.0872 28.5465 42.5607 28.0212 41.9138 28.0212H40.4949C40.3065 28.0212 40.1538 27.8687 40.1538 27.6807C40.1538 27.4927 40.3065 27.3403 40.4949 27.3403H41.9138C42.937 27.3403 43.7696 28.1711 43.7696 29.1922V37.8272C43.7696 38.0151 43.6167 38.1675 43.4283 38.1675ZM28.9417 42.218C28.7532 42.218 28.6006 42.0656 28.6006 41.8776V31.3659C28.6006 29.1472 30.4093 27.3423 32.6326 27.3423L35.904 27.3471C38.12 27.3515 39.9228 29.154 39.9228 31.3653V34.0949C39.9228 36.3136 38.1141 38.1185 35.8907 38.1185H30.7557C30.5674 38.1185 30.4146 37.9661 30.4146 37.7782C30.4146 37.5902 30.5674 37.4376 30.7557 37.4376H35.8907C37.7376 37.4376 39.2403 35.9381 39.2403 34.0949V31.3653C39.2403 29.5287 37.7432 28.0317 35.9028 28.0281L32.6321 28.0232C30.7855 28.0232 29.283 29.5228 29.283 31.3659V41.8776C29.283 42.0656 29.1302 42.218 28.9417 42.218ZM47.5405 38.1184H46.1334C45.945 38.1184 45.7922 37.9659 45.7922 37.778C45.7922 37.59 45.945 37.4375 46.1334 37.4375H47.5405C48.1783 37.4375 48.7782 37.1896 49.2292 36.7395L52.5205 33.5161C52.791 33.246 53.1509 33.0972 53.5337 33.0972C53.9163 33.0972 54.2763 33.246 54.5467 33.5161L57.8259 36.7274C58.277 37.1776 58.8767 37.4255 59.5146 37.4255H60.6588C60.8472 37.4255 60.9999 37.5779 60.9999 37.766C60.9999 37.954 60.8472 38.1065 60.6588 38.1065H59.5146C58.6944 38.1065 57.9235 37.7877 57.3435 37.2089L54.0644 33.9976C53.9225 33.8562 53.734 33.7782 53.5337 33.7782C53.3331 33.7782 53.1447 33.8562 53.0031 33.9976L49.7115 37.2208C49.1316 37.7996 48.3607 38.1184 47.5405 38.1184ZM46.1334 27.3408H47.5405C48.3607 27.3408 49.1316 27.6595 49.7115 28.2382L53.0031 31.4615C53.1447 31.603 53.3331 31.681 53.5337 31.681C53.734 31.681 53.9225 31.603 54.0644 31.4615L57.3435 28.2502C57.9235 27.6715 58.6944 27.3527 59.5146 27.3527H60.6588C60.8472 27.3527 60.9999 27.5051 60.9999 27.6931C60.9999 27.8812 60.8472 28.0337 60.6588 28.0337H59.5146C58.8767 28.0337 58.277 28.2815 57.8259 28.7316L54.5467 31.943C54.2763 32.2131 53.9163 32.3619 53.5337 32.3619C53.1509 32.3619 52.791 32.2131 52.5205 31.943L49.2292 28.7197C48.7782 28.2696 48.1783 28.0217 47.5405 28.0217H46.1334C45.945 28.0217 45.7922 27.8692 45.7922 27.6812C45.7922 27.4932 45.945 27.3408 46.1334 27.3408Z" fill="#939598"/>
  <path fill-rule="evenodd" clip-rule="evenodd" d="M20.8204 29.7559C20.1141 29.7559 19.4499 30.0303 18.9505 30.5284L16.2408 33.233C16.0456 33.4278 15.727 33.4285 15.5314 33.2328L12.8315 30.5382C12.3321 30.0402 11.6679 29.7657 10.9617 29.7657H10.6365L14.0657 26.3437C15.1337 25.278 16.865 25.278 17.933 26.3437L21.3522 29.7559H20.8204ZM10.9618 39.286C11.668 39.286 12.3322 39.0117 12.8316 38.5135L15.5315 35.8193C15.7209 35.6296 16.0514 35.6301 16.2408 35.8193L18.9505 38.5233C19.45 39.0214 20.1141 39.2958 20.8204 39.2958H21.3525L17.9331 42.7081C16.8651 43.7739 15.1337 43.7739 14.0657 42.7081L10.6365 39.286H10.9618ZM9.84353 30.5578L7.80098 32.596C6.73301 33.6618 6.73301 35.3897 7.80098 36.4554L9.84342 38.4935H10.9626C11.4496 38.4935 11.9265 38.2965 12.2706 37.9527L14.9705 35.2588C15.4598 34.77 16.3135 34.7701 16.8033 35.2583L19.513 37.9625C19.8572 38.3063 20.3341 38.5034 20.8211 38.5034H22.147L24.1993 36.4554C25.2673 35.3897 25.2673 33.6618 24.1993 32.596L22.1469 30.5479H20.8211C20.3341 30.5479 19.8572 30.745 19.513 31.0888L16.8031 33.7932C16.5505 34.045 16.2187 34.1711 15.8868 34.1711C15.5552 34.1711 15.2231 34.045 14.9705 33.7929L12.2706 31.0987C11.9265 30.7549 11.4496 30.5578 10.9626 30.5578H9.84353Z" fill="#32BCAD"/>
</svg>
